<?xml version="1.0" encoding="UTF-8"?>
<svg id="Layer_2" data-name="Layer 2" xmlns="http://www.w3.org/2000/svg" viewBox="0 0 119.23 239.12">
  <defs>
    <style>
      .cls-1 {
        fill: #455a64;
      }

      .cls-2 {
        fill: #ff725e;
      }
    </style>
  </defs>
  <g id="Door_2" data-name="Door 2">
    <g>
      <rect class="cls-2" x="6.61" y="10.09" width="102.34" height="229.03"/>
      <polygon class="cls-2" points="108.95 0 9.47 0 0 0 0 10.09 0 239.12 9.47 239.12 9.47 10.09 108.95 10.09 108.95 239.12 119.23 239.12 119.23 10.09 119.23 0 108.95 0"/>
      <path class="cls-1" d="M119.23,0c.09,.11-2.24,2.22-5.1,4.83-1.43,1.31-2.71,2.5-3.6,3.4-.44,.45-.79,.82-1,1.1-.23,.27-.27,.44-.3,.45-.04,0-.06-.24,.13-.56,.17-.32,.48-.75,.9-1.24,.83-.98,2.08-2.22,3.52-3.54,1.43-1.31,2.78-2.45,3.77-3.25,.99-.8,1.64-1.26,1.68-1.2Z"/>
      <path class="cls-1" d="M9.47,10.3c-.11,.1-2.31-2.13-4.93-4.97C1.93,2.49-.1,.1,0,0,.11-.09,2.32,2.13,4.93,4.98c2.61,2.84,4.65,5.23,4.54,5.32Z"/>
    </g>
  </g>
</svg>