<?xml version="1.0" encoding="UTF-8"?>
<svg id="Layer_2" data-name="Layer 2" xmlns="http://www.w3.org/2000/svg" viewBox="0 0 22.31 30.59">
  <defs>
    <style>
      .cls-1 {
        fill: #455a64;
      }

      .cls-2 {
        fill: #263238;
      }
    </style>
  </defs>
  <g id="Door_2" data-name="Door 2">
    <g>
      <path class="cls-2" d="M3.44,30.59h0c-1.9,0-3.44-1.54-3.44-3.44V3.44C0,1.54,1.54,0,3.44,0h0c1.9,0,3.44,1.54,3.44,3.44V27.14c0,1.9-1.54,3.44-3.44,3.44Z"/>
      <path class="cls-1" d="M4.84,23.08c0-.64-.52-1.16-1.16-1.16s-1.16,.52-1.16,1.16c0,.45,.26,.84,.64,1.03v1.35c0,.29,.23,.52,.52,.52h0c.29,0,.52-.23,.52-.52v-1.35c.38-.19,.64-.58,.64-1.03Z"/>
      <path class="cls-2" d="M20.48,13.96H5.18c-1.01,0-1.83-.82-1.83-1.83h0c0-1.01,.82-1.83,1.83-1.83h15.3c1.01,0,1.83,.82,1.83,1.83h0c0,1.01-.82,1.83-1.83,1.83Z"/>
      <path class="cls-1" d="M10.24,14.06c0,.07-.82,.12-2.14,.2-.66,.03-1.47,.06-2.36-.06-.85-.11-2.01-.35-2.62-1.4-.28-.52-.32-1.14-.07-1.66,.12-.26,.34-.49,.57-.61,.23-.13,.45-.21,.67-.28,.88-.29,1.71-.26,2.37-.26,1.34,.04,2.15,.14,2.15,.2,0,.08-.83,.11-2.14,.17-.66,.05-1.44,.06-2.23,.34-.4,.15-.78,.3-.93,.66-.16,.35-.13,.82,.07,1.19,.45,.78,1.41,1.05,2.24,1.17,.84,.13,1.63,.15,2.29,.16,1.32,.01,2.15,.09,2.15,.17Z"/>
    </g>
  </g>
</svg>